<svg width="448" height="65" viewBox="0 0 448 65" fill="none" xmlns="http://www.w3.org/2000/svg">
<path d="M45.7812 55H40.7031V43.2812C40.7031 42.6172 40.5859 42.0247 40.3516 41.5039C40.1302 40.9701 39.8242 40.5143 39.4336 40.1367C39.043 39.7591 38.5807 39.4727 38.0469 39.2773C37.526 39.069 36.9596 38.9648 36.3477 38.9648H27.4609V55H22.3828V36.4062C22.3828 36.0547 22.4479 35.7292 22.5781 35.4297C22.7083 35.1172 22.8906 34.8503 23.125 34.6289C23.3594 34.3945 23.6328 34.2122 23.9453 34.082C24.2578 33.9518 24.5898 33.8867 24.9414 33.8867H36.3867C37.0247 33.8867 37.6953 33.9583 38.3984 34.1016C39.1146 34.2448 39.8177 34.4792 40.5078 34.8047C41.2109 35.1172 41.875 35.5208 42.5 36.0156C43.138 36.4974 43.6979 37.0898 44.1797 37.793C44.6745 38.4831 45.0651 39.2839 45.3516 40.1953C45.638 41.1068 45.7812 42.1354 45.7812 43.2812V55ZM68.8086 38.9648H59.9414V55H54.8047V38.9648H48.2031V33.8867H54.8047V26.9922H59.9414V33.8867H68.8086V38.9648ZM94.7852 40.8789C94.7852 41.582 94.6615 42.3438 94.4141 43.1641C94.1667 43.9714 93.763 44.7266 93.2031 45.4297C92.6562 46.1198 91.9336 46.6992 91.0352 47.168C90.1497 47.6367 89.069 47.8711 87.793 47.8711H78.6328V43.0469H87.793C88.4831 43.0469 89.0169 42.8385 89.3945 42.4219C89.7721 41.9922 89.9609 41.4648 89.9609 40.8398C89.9609 40.1758 89.7461 39.6549 89.3164 39.2773C88.8997 38.8997 88.3919 38.7109 87.793 38.7109H78.6328C77.9427 38.7109 77.4089 38.9258 77.0312 39.3555C76.6536 39.7721 76.4648 40.293 76.4648 40.918V48.0078C76.4648 48.6849 76.6732 49.2122 77.0898 49.5898C77.5195 49.9674 78.0469 50.1562 78.6719 50.1562H87.793V55H78.6328C77.9297 55 77.168 54.8763 76.3477 54.6289C75.5404 54.3815 74.7852 53.9844 74.082 53.4375C73.3919 52.8776 72.8125 52.1549 72.3438 51.2695C71.875 50.3711 71.6406 49.2839 71.6406 48.0078V40.8789C71.6406 40.1758 71.7643 39.4206 72.0117 38.6133C72.2591 37.793 72.6562 37.0378 73.2031 36.3477C73.763 35.6445 74.4857 35.0586 75.3711 34.5898C76.2695 34.1211 77.3568 33.8867 78.6328 33.8867H87.793C88.4961 33.8867 89.2513 34.0104 90.0586 34.2578C90.8789 34.5052 91.6341 34.9089 92.3242 35.4688C93.0273 36.0156 93.6133 36.7383 94.082 37.6367C94.5508 38.5221 94.7852 39.6029 94.7852 40.8789ZM107.48 55H105.215C104.486 55 103.704 54.8763 102.871 54.6289C102.051 54.3815 101.283 53.9779 100.566 53.418C99.8503 52.8451 99.2578 52.1094 98.7891 51.2109C98.3203 50.2995 98.0859 49.1862 98.0859 47.8711V24.9609H103.164V47.8711C103.164 48.4961 103.359 48.9974 103.75 49.375C104.141 49.7396 104.629 49.9219 105.215 49.9219H107.48V55ZM120.02 55H117.754C117.025 55 116.243 54.8763 115.41 54.6289C114.59 54.3815 113.822 53.9779 113.105 53.418C112.389 52.8451 111.797 52.1094 111.328 51.2109C110.859 50.2995 110.625 49.1862 110.625 47.8711V24.9609H115.703V47.8711C115.703 48.4961 115.898 48.9974 116.289 49.375C116.68 49.7396 117.168 49.9219 117.754 49.9219H120.02V55ZM128.438 29.5508H123.359V24.9609H128.438V29.5508ZM128.438 55H123.359V33.8867H128.438V55ZM156.289 57.0312C156.289 57.9036 156.178 58.6849 155.957 59.375C155.736 60.0781 155.443 60.6901 155.078 61.2109C154.714 61.7448 154.29 62.194 153.809 62.5586C153.327 62.9362 152.819 63.2422 152.285 63.4766C151.764 63.7109 151.23 63.8802 150.684 63.9844C150.15 64.1016 149.642 64.1602 149.16 64.1602H140V59.082H149.16C149.85 59.082 150.365 58.9062 150.703 58.5547C151.042 58.2031 151.211 57.6953 151.211 57.0312V40.9961C151.211 40.332 151.042 39.8307 150.703 39.4922C150.365 39.1406 149.85 38.9648 149.16 38.9648H140C139.375 38.9648 138.88 39.1602 138.516 39.5508C138.151 39.9284 137.969 40.4102 137.969 40.9961V47.8711C137.969 48.5352 138.145 49.043 138.496 49.3945C138.848 49.7461 139.362 49.9219 140.039 49.9219H149.16V55H140C139.518 55 139.01 54.9479 138.477 54.8438C137.943 54.7266 137.409 54.5508 136.875 54.3164C136.354 54.082 135.853 53.7826 135.371 53.418C134.889 53.0404 134.466 52.5911 134.102 52.0703C133.737 51.5365 133.444 50.9245 133.223 50.2344C133.001 49.5312 132.891 48.7435 132.891 47.8711V40.9961C132.891 40.5143 132.943 40.0065 133.047 39.4727C133.164 38.9388 133.34 38.4115 133.574 37.8906C133.809 37.3568 134.108 36.849 134.473 36.3672C134.85 35.8854 135.299 35.4622 135.82 35.0977C136.354 34.7331 136.966 34.4401 137.656 34.2188C138.346 33.9974 139.128 33.8867 140 33.8867H149.16C149.642 33.8867 150.15 33.9453 150.684 34.0625C151.23 34.1667 151.764 34.3359 152.285 34.5703C152.819 34.8047 153.327 35.1107 153.809 35.4883C154.29 35.8529 154.714 36.3021 155.078 36.8359C155.443 37.3568 155.736 37.9622 155.957 38.6523C156.178 39.3424 156.289 40.1237 156.289 40.9961V57.0312ZM183.652 40.8789C183.652 41.582 183.529 42.3438 183.281 43.1641C183.034 43.9714 182.63 44.7266 182.07 45.4297C181.523 46.1198 180.801 46.6992 179.902 47.168C179.017 47.6367 177.936 47.8711 176.66 47.8711H167.5V43.0469H176.66C177.35 43.0469 177.884 42.8385 178.262 42.4219C178.639 41.9922 178.828 41.4648 178.828 40.8398C178.828 40.1758 178.613 39.6549 178.184 39.2773C177.767 38.8997 177.259 38.7109 176.66 38.7109H167.5C166.81 38.7109 166.276 38.9258 165.898 39.3555C165.521 39.7721 165.332 40.293 165.332 40.918V48.0078C165.332 48.6849 165.54 49.2122 165.957 49.5898C166.387 49.9674 166.914 50.1562 167.539 50.1562H176.66V55H167.5C166.797 55 166.035 54.8763 165.215 54.6289C164.408 54.3815 163.652 53.9844 162.949 53.4375C162.259 52.8776 161.68 52.1549 161.211 51.2695C160.742 50.3711 160.508 49.2839 160.508 48.0078V40.8789C160.508 40.1758 160.632 39.4206 160.879 38.6133C161.126 37.793 161.523 37.0378 162.07 36.3477C162.63 35.6445 163.353 35.0586 164.238 34.5898C165.137 34.1211 166.224 33.8867 167.5 33.8867H176.66C177.363 33.8867 178.118 34.0104 178.926 34.2578C179.746 34.5052 180.501 34.9089 181.191 35.4688C181.895 36.0156 182.48 36.7383 182.949 37.6367C183.418 38.5221 183.652 39.6029 183.652 40.8789ZM210.469 55H205.391V43.2812C205.391 42.6172 205.273 42.0247 205.039 41.5039C204.818 40.9701 204.512 40.5143 204.121 40.1367C203.73 39.7591 203.268 39.4727 202.734 39.2773C202.214 39.069 201.647 38.9648 201.035 38.9648H192.148V55H187.07V36.4062C187.07 36.0547 187.135 35.7292 187.266 35.4297C187.396 35.1172 187.578 34.8503 187.812 34.6289C188.047 34.3945 188.32 34.2122 188.633 34.082C188.945 33.9518 189.277 33.8867 189.629 33.8867H201.074C201.712 33.8867 202.383 33.9583 203.086 34.1016C203.802 34.2448 204.505 34.4792 205.195 34.8047C205.898 35.1172 206.562 35.5208 207.188 36.0156C207.826 36.4974 208.385 37.0898 208.867 37.793C209.362 38.4831 209.753 39.2839 210.039 40.1953C210.326 41.1068 210.469 42.1354 210.469 43.2812V55ZM235.371 55H221.602C220.898 55 220.13 54.8763 219.297 54.6289C218.464 54.3815 217.689 53.9779 216.973 53.418C216.27 52.8451 215.677 52.1094 215.195 51.2109C214.727 50.2995 214.492 49.1862 214.492 47.8711V40.9961C214.492 40.5143 214.544 40.0065 214.648 39.4727C214.766 38.9388 214.941 38.4115 215.176 37.8906C215.41 37.3568 215.71 36.849 216.074 36.3672C216.452 35.8854 216.901 35.4622 217.422 35.0977C217.956 34.7331 218.568 34.4401 219.258 34.2188C219.948 33.9974 220.729 33.8867 221.602 33.8867H235.371V38.9648H221.602C220.938 38.9648 220.43 39.1341 220.078 39.4727C219.74 39.8112 219.57 40.332 219.57 41.0352V47.8711C219.57 48.5352 219.746 49.043 220.098 49.3945C220.449 49.7461 220.964 49.9219 221.641 49.9219H235.371V55ZM262.129 40.8789C262.129 41.582 262.005 42.3438 261.758 43.1641C261.51 43.9714 261.107 44.7266 260.547 45.4297C260 46.1198 259.277 46.6992 258.379 47.168C257.493 47.6367 256.413 47.8711 255.137 47.8711H245.977V43.0469H255.137C255.827 43.0469 256.361 42.8385 256.738 42.4219C257.116 41.9922 257.305 41.4648 257.305 40.8398C257.305 40.1758 257.09 39.6549 256.66 39.2773C256.243 38.8997 255.736 38.7109 255.137 38.7109H245.977C245.286 38.7109 244.753 38.9258 244.375 39.3555C243.997 39.7721 243.809 40.293 243.809 40.918V48.0078C243.809 48.6849 244.017 49.2122 244.434 49.5898C244.863 49.9674 245.391 50.1562 246.016 50.1562H255.137V55H245.977C245.273 55 244.512 54.8763 243.691 54.6289C242.884 54.3815 242.129 53.9844 241.426 53.4375C240.736 52.8776 240.156 52.1549 239.688 51.2695C239.219 50.3711 238.984 49.2839 238.984 48.0078V40.8789C238.984 40.1758 239.108 39.4206 239.355 38.6133C239.603 37.793 240 37.0378 240.547 36.3477C241.107 35.6445 241.829 35.0586 242.715 34.5898C243.613 34.1211 244.701 33.8867 245.977 33.8867H255.137C255.84 33.8867 256.595 34.0104 257.402 34.2578C258.223 34.5052 258.978 34.9089 259.668 35.4688C260.371 36.0156 260.957 36.7383 261.426 37.6367C261.895 38.5221 262.129 39.6029 262.129 40.8789ZM304.199 55H285.879C285.41 55 284.902 54.9479 284.355 54.8438C283.822 54.7266 283.288 54.5508 282.754 54.3164C282.233 54.082 281.732 53.7826 281.25 53.418C280.768 53.0404 280.339 52.5911 279.961 52.0703C279.596 51.5365 279.303 50.9245 279.082 50.2344C278.861 49.5312 278.75 48.7435 278.75 47.8711V34.1211C278.75 33.6523 278.802 33.151 278.906 32.6172C279.023 32.0703 279.199 31.5365 279.434 31.0156C279.668 30.4818 279.974 29.974 280.352 29.4922C280.729 29.0104 281.178 28.5872 281.699 28.2227C282.233 27.8451 282.845 27.5456 283.535 27.3242C284.225 27.1029 285.007 26.9922 285.879 26.9922H304.199V32.0703H285.879C285.215 32.0703 284.707 32.2461 284.355 32.5977C284.004 32.9492 283.828 33.4701 283.828 34.1602V47.8711C283.828 48.5221 284.004 49.0299 284.355 49.3945C284.72 49.7461 285.228 49.9219 285.879 49.9219H304.199V55ZM331.25 52.4414C331.25 52.806 331.185 53.1445 331.055 53.457C330.924 53.7695 330.742 54.043 330.508 54.2773C330.286 54.4987 330.02 54.6745 329.707 54.8047C329.408 54.9349 329.082 55 328.73 55H317.246C316.621 55 315.951 54.9284 315.234 54.7852C314.531 54.6419 313.835 54.4141 313.145 54.1016C312.454 53.776 311.784 53.3724 311.133 52.8906C310.495 52.3958 309.935 51.8034 309.453 51.1133C308.971 50.4102 308.581 49.6029 308.281 48.6914C307.995 47.7799 307.852 46.7513 307.852 45.6055V33.8867H312.93V45.6055C312.93 46.2695 313.04 46.8685 313.262 47.4023C313.496 47.9232 313.809 48.3724 314.199 48.75C314.59 49.1276 315.046 49.4206 315.566 49.6289C316.1 49.8242 316.673 49.9219 317.285 49.9219H326.172V33.8867H331.25V52.4414ZM359.297 47.8711C359.297 48.3529 359.238 48.8607 359.121 49.3945C359.017 49.9284 358.848 50.4622 358.613 50.9961C358.379 51.5169 358.073 52.0182 357.695 52.5C357.331 52.9818 356.882 53.4115 356.348 53.7891C355.827 54.1536 355.221 54.4466 354.531 54.668C353.841 54.8893 353.06 55 352.188 55H343.027C342.546 55 342.038 54.9479 341.504 54.8438C340.97 54.7266 340.436 54.5508 339.902 54.3164C339.382 54.082 338.88 53.7826 338.398 53.418C337.917 53.0404 337.487 52.5911 337.109 52.0703C336.745 51.5365 336.452 50.9245 336.23 50.2344C336.009 49.5312 335.898 48.7435 335.898 47.8711V24.9609H340.977V47.8711C340.977 48.4961 341.172 48.9974 341.562 49.375C341.953 49.7396 342.441 49.9219 343.027 49.9219H352.188C352.826 49.9219 353.32 49.7331 353.672 49.3555C354.036 48.9779 354.219 48.4831 354.219 47.8711V40.9961C354.219 40.3581 354.03 39.8633 353.652 39.5117C353.275 39.1471 352.786 38.9648 352.188 38.9648H343.027V33.8867H352.188C352.669 33.8867 353.177 33.9453 353.711 34.0625C354.245 34.1667 354.772 34.3359 355.293 34.5703C355.827 34.8047 356.335 35.1107 356.816 35.4883C357.298 35.8529 357.721 36.3021 358.086 36.8359C358.451 37.3568 358.743 37.9622 358.965 38.6523C359.186 39.3424 359.297 40.1237 359.297 40.9961V47.8711ZM386.348 40.8789C386.348 41.582 386.224 42.3438 385.977 43.1641C385.729 43.9714 385.326 44.7266 384.766 45.4297C384.219 46.1198 383.496 46.6992 382.598 47.168C381.712 47.6367 380.632 47.8711 379.355 47.8711H370.195V43.0469H379.355C380.046 43.0469 380.579 42.8385 380.957 42.4219C381.335 41.9922 381.523 41.4648 381.523 40.8398C381.523 40.1758 381.309 39.6549 380.879 39.2773C380.462 38.8997 379.954 38.7109 379.355 38.7109H370.195C369.505 38.7109 368.971 38.9258 368.594 39.3555C368.216 39.7721 368.027 40.293 368.027 40.918V48.0078C368.027 48.6849 368.236 49.2122 368.652 49.5898C369.082 49.9674 369.609 50.1562 370.234 50.1562H379.355V55H370.195C369.492 55 368.73 54.8763 367.91 54.6289C367.103 54.3815 366.348 53.9844 365.645 53.4375C364.954 52.8776 364.375 52.1549 363.906 51.2695C363.438 50.3711 363.203 49.2839 363.203 48.0078V40.8789C363.203 40.1758 363.327 39.4206 363.574 38.6133C363.822 37.793 364.219 37.0378 364.766 36.3477C365.326 35.6445 366.048 35.0586 366.934 34.5898C367.832 34.1211 368.919 33.8867 370.195 33.8867H379.355C380.059 33.8867 380.814 34.0104 381.621 34.2578C382.441 34.5052 383.197 34.9089 383.887 35.4688C384.59 36.0156 385.176 36.7383 385.645 37.6367C386.113 38.5221 386.348 39.6029 386.348 40.8789ZM412.93 47.8711C412.93 48.7435 412.819 49.5312 412.598 50.2344C412.376 50.9245 412.083 51.5365 411.719 52.0703C411.354 52.5911 410.931 53.0404 410.449 53.418C409.967 53.7826 409.46 54.082 408.926 54.3164C408.405 54.5508 407.871 54.7266 407.324 54.8438C406.79 54.9479 406.283 55 405.801 55H396.641C395.768 55 394.987 54.8893 394.297 54.668C393.607 54.4466 392.995 54.1536 392.461 53.7891C391.94 53.4115 391.491 52.9818 391.113 52.5C390.749 52.0182 390.449 51.5169 390.215 50.9961C389.98 50.4622 389.805 49.9284 389.688 49.3945C389.583 48.8477 389.531 48.3398 389.531 47.8711V40.9961C389.531 39.694 389.766 38.5938 390.234 37.6953C390.716 36.7839 391.309 36.0482 392.012 35.4883C392.728 34.9154 393.503 34.5052 394.336 34.2578C395.169 34.0104 395.938 33.8867 396.641 33.8867H405.801V38.9648H396.68C396.003 38.9648 395.488 39.1406 395.137 39.4922C394.785 39.8307 394.609 40.332 394.609 40.9961V47.832C394.609 48.5221 394.779 49.043 395.117 49.3945C395.469 49.7461 395.977 49.9219 396.641 49.9219H405.801C406.491 49.9219 407.005 49.7461 407.344 49.3945C407.682 49.043 407.852 48.5352 407.852 47.8711V24.9609H412.93V47.8711Z" fill="url(#paint0_linear_217_2)"/>
<path d="M20.5418 20.9485L22.6594 17.0361V14.4832L14.7838 17.7858V20.7316L19.2642 18.8527L17.0415 22.9465L18.1091 24.2859L18.6866 24.0437C19.0053 23.9101 19.2746 23.8494 19.4977 23.8494C20.0831 23.8493 20.3492 24.2668 20.3492 24.8783C20.3492 25.7227 19.8417 26.6229 18.6866 27.1073C18.3585 27.2449 18.0816 27.309 17.8473 27.3091C17.3194 27.3092 17.0079 26.9837 16.814 26.4394L14.3988 29.0232C14.8814 30.1179 15.7453 30.6004 16.7923 30.6007C17.378 30.6008 18.0211 30.4499 18.6866 30.1708C21.0493 29.18 23.1494 26.7283 23.1494 23.704C23.1494 21.7991 22.0469 20.9064 20.5418 20.9485Z" fill="#FFEEB6"/>
<path d="M24.5099 14.4832V17.0361H22.6594V14.4832H24.5099Z" fill="url(#paint1_linear_217_2)"/>
<path d="M22.3923 20.9485C23.8974 20.9064 24.9999 21.7991 24.9999 23.704H23.1494C23.1494 21.8847 22.1436 20.9887 20.742 20.9485H20.5417C20.6093 20.9466 20.6761 20.9466 20.742 20.9485H22.3923Z" fill="url(#paint2_linear_217_2)"/>
<path d="M24.5099 17.0361L22.3923 20.9485H20.5417L22.6593 17.0361H24.5099Z" fill="url(#paint3_linear_217_2)"/>
<path d="M24.9999 23.704C24.9999 26.7283 22.8998 29.18 20.5371 30.1708H18.6865C21.0492 29.18 23.1494 26.7283 23.1494 23.704H24.9999Z" fill="url(#paint4_linear_217_2)"/>
<path d="M21.3481 23.8494C21.1251 23.8494 20.8557 23.9101 20.5371 24.0437H18.6865C19.0052 23.9101 19.2746 23.8494 19.4976 23.8494H21.3481Z" fill="url(#paint5_linear_217_2)"/>
<path d="M16.6344 17.7858L24.51 14.4832H22.6594L14.7838 17.7858H16.6344Z" fill="#FFECB3"/>
<path d="M20.5371 24.0437L19.9596 24.2859H18.109L18.6866 24.0437H20.5371Z" fill="url(#paint6_linear_217_2)"/>
<path d="M22.1997 24.8783C22.1997 24.2668 21.9336 23.8493 21.3481 23.8494H19.4981C20.0832 23.8495 20.3491 24.2669 20.3491 24.8783H22.1997Z" fill="url(#paint7_linear_217_2)"/>
<path d="M20.5371 27.1073C21.6922 26.6229 22.1997 25.7227 22.1997 24.8783H20.3491C20.3491 25.7227 19.8416 26.6229 18.6865 27.1073H20.5371Z" fill="url(#paint8_linear_217_2)"/>
<path d="M19.6978 27.3091C19.9321 27.3091 20.2089 27.2449 20.5371 27.1073H18.6865C18.3584 27.2449 18.0815 27.3091 17.8472 27.3091H19.6978Z" fill="url(#paint9_linear_217_2)"/>
<path d="M18.8919 22.9466L21.1146 18.8527H19.264L17.0414 22.9466H18.8919Z" fill="url(#paint10_linear_217_2)"/>
<path d="M20.5371 30.1709C19.8715 30.45 19.2285 30.6008 18.6427 30.6007H16.7936C17.379 30.6006 18.0215 30.4497 18.6865 30.1709H20.5371Z" fill="url(#paint11_linear_217_2)"/>
<path d="M19.9595 24.2859L18.8919 22.9466H17.0414L18.109 24.2859H19.9595Z" fill="url(#paint12_linear_217_2)"/>
<path d="M18.6645 26.4394C18.8584 26.9835 19.1698 27.309 19.6974 27.3091H17.8473C17.3194 27.3092 17.0079 26.9837 16.814 26.4394H18.6645Z" fill="url(#paint13_linear_217_2)"/>
<path d="M21.1147 18.8527L16.6344 20.7316H14.7838L19.2641 18.8527H21.1147Z" fill="url(#paint14_linear_217_2)"/>
<path d="M16.2494 29.0232L18.6645 26.4394H16.814L14.3988 29.0232H16.2494Z" fill="url(#paint15_linear_217_2)"/>
<path d="M18.6428 30.6007C17.5959 30.6004 16.7319 30.1179 16.2494 29.0232H14.3988C14.8814 30.1179 15.7453 30.6004 16.7923 30.6007H18.6428Z" fill="url(#paint16_linear_217_2)"/>
<path d="M16.6344 20.7316V17.7859H14.7838V20.7316H16.6344Z" fill="url(#paint17_linear_217_2)"/>
<path d="M22.3923 20.9485L24.5099 17.0361V14.4832L16.6344 17.7858V20.7316L21.1147 18.8527L18.892 22.9465L19.9596 24.2859L20.5371 24.0437C21.6922 23.5593 22.1998 24.0338 22.1998 24.8783C22.1998 25.7227 21.6922 26.6229 20.5371 27.1073C19.4696 27.555 18.9445 27.2253 18.6645 26.4394L16.2493 29.0232C17.0019 30.7304 18.682 30.9488 20.5371 30.1708C22.8998 29.18 25 26.7283 25 23.704C25 21.7991 23.8974 20.9064 22.3923 20.9485Z" fill="url(#paint18_linear_217_2)"/>
<path d="M7.68598 52.6734L12.6392 54.9956L7.13822 57.0867L2.185 54.7643L7.68598 52.6734Z" fill="#663366"/>
<path d="M2.18512 30.1983L7.6861 28.1071V52.6733L2.18512 54.7642V30.1983Z" fill="#CC2255"/>
<path d="M12.6393 30.4296L7.6861 28.1072V52.6734L12.6393 54.9956V30.4296Z" fill="#EEAA00"/>
<path d="M2.185 30.1984L7.13821 32.5206V57.0867L2.185 54.7643V30.1984Z" fill="url(#paint19_linear_217_2)"/>
<path d="M12.6393 30.4296L7.13831 32.5206V57.0867L12.6393 54.9956V30.4296Z" fill="url(#paint20_linear_217_2)"/>
<path d="M2.18512 30.1983L7.13834 32.5205L12.6393 30.4296L7.6861 28.1071L2.18512 30.1983Z" fill="url(#paint21_linear_217_2)"/>
<path d="M2 17.5211L6.95322 19.8435L12.4542 17.7523L7.50098 15.4301L2 17.5211Z" fill="url(#paint22_linear_217_2)"/>
<path d="M2 17.5211L6.95322 19.8435V26.8622L2 24.54V17.5211Z" fill="url(#paint23_linear_217_2)"/>
<path d="M12.4542 17.7524L6.95319 19.8435V26.8622L12.4542 24.7713V17.7524Z" fill="url(#paint24_linear_217_2)"/>
<defs>
<linearGradient id="paint0_linear_217_2" x1="20" y1="37.607" x2="447" y2="37.607" gradientUnits="userSpaceOnUse">
<stop stop-color="#A557E2"/>
<stop offset="0.5" stop-color="#FF1933"/>
<stop offset="1" stop-color="#FB917D"/>
</linearGradient>
<linearGradient id="paint1_linear_217_2" x1="23.5846" y1="17.0361" x2="23.5846" y2="14.4832" gradientUnits="userSpaceOnUse">
<stop stop-color="#FFD858"/>
<stop offset="1" stop-color="#FFD858"/>
</linearGradient>
<linearGradient id="paint2_linear_217_2" x1="22.7708" y1="23.704" x2="22.7708" y2="20.9471" gradientUnits="userSpaceOnUse">
<stop stop-color="#FFD858"/>
<stop offset="1" stop-color="#FFDB5C"/>
</linearGradient>
<linearGradient id="paint3_linear_217_2" x1="22.5258" y1="20.9485" x2="22.5258" y2="17.0361" gradientUnits="userSpaceOnUse">
<stop stop-color="#FEFFA2"/>
<stop offset="1" stop-color="#FEFFA2"/>
</linearGradient>
<linearGradient id="paint4_linear_217_2" x1="21.8432" y1="30.1708" x2="21.8432" y2="23.704" gradientUnits="userSpaceOnUse">
<stop stop-color="#FFF990"/>
<stop offset="1" stop-color="#FFD858"/>
</linearGradient>
<linearGradient id="paint5_linear_217_2" x1="20.0173" y1="24.0437" x2="20.0173" y2="23.8494" gradientUnits="userSpaceOnUse">
<stop stop-color="#FFF990"/>
<stop offset="0.5" stop-color="#FFED77"/>
<stop offset="1" stop-color="#FFD858"/>
</linearGradient>
<linearGradient id="paint6_linear_217_2" x1="19.3231" y1="24.2859" x2="19.3231" y2="24.0437" gradientUnits="userSpaceOnUse">
<stop stop-color="#FFF990"/>
<stop offset="1" stop-color="#FFF990"/>
</linearGradient>
<linearGradient id="paint7_linear_217_2" x1="19.1922" y1="27.3091" x2="21.2719" y2="23.3679" gradientUnits="userSpaceOnUse">
<stop stop-color="#FFCA8F"/>
<stop offset="1" stop-color="#FFECB3"/>
</linearGradient>
<linearGradient id="paint8_linear_217_2" x1="19.1922" y1="27.3091" x2="21.2719" y2="23.3679" gradientUnits="userSpaceOnUse">
<stop stop-color="#FFCA8F"/>
<stop offset="1" stop-color="#FFECB3"/>
</linearGradient>
<linearGradient id="paint9_linear_217_2" x1="19.1922" y1="27.3091" x2="21.2719" y2="23.3679" gradientUnits="userSpaceOnUse">
<stop stop-color="#FFCA8F"/>
<stop offset="1" stop-color="#FFECB3"/>
</linearGradient>
<linearGradient id="paint10_linear_217_2" x1="18.1923" y1="22.9212" x2="19.6735" y2="19.1159" gradientUnits="userSpaceOnUse">
<stop stop-color="#FFB78B"/>
<stop offset="1" stop-color="#FF1933"/>
</linearGradient>
<linearGradient id="paint11_linear_217_2" x1="18.6646" y1="30.6007" x2="18.6646" y2="30.1709" gradientUnits="userSpaceOnUse">
<stop stop-color="#FFD858"/>
<stop offset="0.5" stop-color="#FFEE78"/>
<stop offset="1" stop-color="#FFF990"/>
</linearGradient>
<linearGradient id="paint12_linear_217_2" x1="19.9504" y1="25.6103" x2="17.9137" y2="22.994" gradientUnits="userSpaceOnUse">
<stop stop-color="#FFF284"/>
<stop offset="1" stop-color="#FF5B57"/>
</linearGradient>
<linearGradient id="paint13_linear_217_2" x1="18.2559" y1="27.3091" x2="18.2559" y2="26.4394" gradientUnits="userSpaceOnUse">
<stop stop-color="#FFD858"/>
<stop offset="0.5" stop-color="#E45A00"/>
<stop offset="1" stop-color="#FFA724"/>
</linearGradient>
<linearGradient id="paint14_linear_217_2" x1="17.9493" y1="20.7316" x2="17.9493" y2="18.8527" gradientUnits="userSpaceOnUse">
<stop stop-color="#FFF990"/>
<stop offset="1" stop-color="#FFF990"/>
</linearGradient>
<linearGradient id="paint15_linear_217_2" x1="15.6942" y1="29.0676" x2="17.9256" y2="26.17" gradientUnits="userSpaceOnUse">
<stop stop-color="#FFECB3"/>
<stop offset="1" stop-color="#FF5453"/>
</linearGradient>
<linearGradient id="paint16_linear_217_2" x1="14.5839" y1="28.0112" x2="16.9033" y2="30.7114" gradientUnits="userSpaceOnUse">
<stop offset="0.0795775" stop-color="#FB8778"/>
<stop offset="1" stop-color="#FFCD92"/>
</linearGradient>
<linearGradient id="paint17_linear_217_2" x1="16.6195" y1="20.6162" x2="14.663" y2="17.3177" gradientUnits="userSpaceOnUse">
<stop stop-color="#F53753"/>
<stop offset="1" stop-color="#FB8A7A"/>
</linearGradient>
<linearGradient id="paint18_linear_217_2" x1="20.6246" y1="16.1125" x2="25.6253" y2="28.0371" gradientUnits="userSpaceOnUse">
<stop stop-color="#FDB08B"/>
<stop offset="0.504808" stop-color="#FF5B57"/>
<stop offset="1" stop-color="#B05DE4"/>
</linearGradient>
<linearGradient id="paint19_linear_217_2" x1="-26.6838" y1="53.5575" x2="4.68779" y2="56.8362" gradientUnits="userSpaceOnUse">
<stop stop-color="#D778EE"/>
<stop offset="1" stop-color="#7438D9"/>
</linearGradient>
<linearGradient id="paint20_linear_217_2" x1="8.10689" y1="27.627" x2="12.1905" y2="65.5311" gradientUnits="userSpaceOnUse">
<stop stop-color="#DB78ED"/>
<stop offset="1" stop-color="#6C33D7"/>
</linearGradient>
<linearGradient id="paint21_linear_217_2" x1="7.41222" y1="28.1071" x2="7.41222" y2="32.5205" gradientUnits="userSpaceOnUse">
<stop stop-color="#FD7BE1"/>
<stop offset="1" stop-color="#F07AE6"/>
</linearGradient>
<linearGradient id="paint22_linear_217_2" x1="7.18158" y1="16.0063" x2="8.07848" y2="30.8885" gradientUnits="userSpaceOnUse">
<stop stop-color="#FFEEB5"/>
<stop offset="1" stop-color="#FF4600"/>
</linearGradient>
<linearGradient id="paint23_linear_217_2" x1="-1.42354" y1="12.2608" x2="6.58178" y2="24.8645" gradientUnits="userSpaceOnUse">
<stop stop-color="#FFD79D"/>
<stop offset="1" stop-color="#F53753"/>
</linearGradient>
<linearGradient id="paint24_linear_217_2" x1="10.235" y1="15.4301" x2="9.7366" y2="31.1794" gradientUnits="userSpaceOnUse">
<stop stop-color="#FFD79D"/>
<stop offset="1" stop-color="#F53753"/>
</linearGradient>
</defs>
</svg>
