<svg width="184" height="184" viewBox="0 0 184 184" fill="none" xmlns="http://www.w3.org/2000/svg">
<rect width="184" height="184" rx="92" fill="#F7DBFF"/>
<path d="M121.398 59.7256L126.909 49.9162V43.5151L106.413 51.7959V59.1817L118.073 54.4709L112.289 64.7354L115.067 68.0936L116.57 67.4863C117.399 67.1513 118.1 66.9992 118.681 66.9991C120.204 66.9988 120.897 68.0456 120.897 69.5788C120.897 71.6961 119.576 73.9531 116.57 75.1676C115.716 75.5126 114.995 75.6735 114.386 75.6736C113.012 75.6738 112.201 74.8578 111.696 73.4929L105.411 79.9714C106.667 82.7161 108.915 83.926 111.64 83.9266C113.164 83.9269 114.838 83.5486 116.57 82.8488C122.719 80.3646 128.184 74.2173 128.184 66.6345C128.184 61.8583 125.315 59.6202 121.398 59.7256Z" fill="#FFEEB6"/>
<path d="M131.724 43.5151V49.9162H126.908V43.5151H131.724Z" fill="url(#paint0_linear_598_83)"/>
<path d="M126.213 59.7257C130.13 59.6203 133 61.8585 133 66.6347H128.184C128.184 62.073 125.566 59.8265 121.919 59.7257H121.397C121.573 59.721 121.747 59.721 121.919 59.7257H126.213Z" fill="url(#paint1_linear_598_83)"/>
<path d="M131.724 49.9165L126.213 59.7259H121.397L126.909 49.9165H131.724Z" fill="url(#paint2_linear_598_83)"/>
<path d="M132.999 66.6343C132.999 74.2171 127.534 80.3644 121.385 82.8486H116.569C122.718 80.3644 128.184 74.2171 128.184 66.6343H132.999Z" fill="url(#paint3_linear_598_83)"/>
<path d="M123.496 66.9995C122.916 66.9996 122.215 67.1517 121.385 67.4867H116.569C117.399 67.1517 118.1 66.9996 118.68 66.9995H123.496Z" fill="url(#paint4_linear_598_83)"/>
<path d="M111.229 51.7959L131.725 43.5151H126.909L106.413 51.7959H111.229Z" fill="#FFECB3"/>
<path d="M121.385 67.4863L119.882 68.0936H115.066L116.569 67.4863H121.385Z" fill="url(#paint5_linear_598_83)"/>
<path d="M125.712 69.5792C125.712 68.046 125.019 66.9992 123.496 66.9995H118.681C120.204 66.9998 120.896 68.0464 120.896 69.5792H125.712Z" fill="url(#paint6_linear_598_83)"/>
<path d="M121.385 75.168C124.391 73.9535 125.712 71.6965 125.712 69.5792H120.896C120.896 71.6965 119.575 73.9535 116.569 75.168H121.385Z" fill="url(#paint7_linear_598_83)"/>
<path d="M119.201 75.674C119.81 75.6739 120.531 75.513 121.385 75.168H116.569C115.715 75.513 114.994 75.6739 114.385 75.674H119.201Z" fill="url(#paint8_linear_598_83)"/>
<path d="M117.104 64.7352L122.888 54.4707H118.072L112.288 64.7352H117.104Z" fill="url(#paint9_linear_598_83)"/>
<path d="M121.385 82.8486C119.653 83.5484 117.98 83.9267 116.456 83.9264H111.643C113.167 83.9261 114.839 83.5479 116.57 82.8486H121.385Z" fill="url(#paint10_linear_598_83)"/>
<path d="M119.882 68.0936L117.104 64.7354H112.288L115.066 68.0936H119.882Z" fill="url(#paint11_linear_598_83)"/>
<path d="M116.512 73.4927C117.017 74.8571 117.827 75.6731 119.2 75.6734H114.385C113.012 75.6736 112.201 74.8575 111.696 73.4927H116.512Z" fill="url(#paint12_linear_598_83)"/>
<path d="M122.889 54.4707L111.229 59.1815H106.413L118.073 54.4707H122.889Z" fill="url(#paint13_linear_598_83)"/>
<path d="M110.227 79.9712L116.512 73.4927H111.696L105.411 79.9712H110.227Z" fill="url(#paint14_linear_598_83)"/>
<path d="M116.456 83.9268C113.731 83.9263 111.483 82.7164 110.227 79.9717H105.411C106.667 82.7164 108.915 83.9263 111.64 83.9268H116.456Z" fill="url(#paint15_linear_598_83)"/>
<path d="M111.229 59.1817V51.7959H106.413V59.1817H111.229Z" fill="url(#paint16_linear_598_83)"/>
<path d="M126.213 59.7255L131.724 49.9161V43.5151L111.229 51.7958V59.1817L122.888 54.4708L117.104 64.7353L119.882 68.0935L121.385 67.4863C124.391 66.2717 125.712 67.4615 125.712 69.5787C125.712 71.696 124.391 73.953 121.385 75.1675C118.607 76.29 117.241 75.4634 116.512 73.4928L110.227 79.9714C112.185 84.2517 116.557 84.7993 121.385 82.8488C127.534 80.3645 132.999 74.2172 132.999 66.6344C132.999 61.8583 130.13 59.6201 126.213 59.7255Z" fill="url(#paint17_linear_598_83)"/>
<path d="M84.7974 136.38L97.6878 142.202L83.3718 147.446L70.4814 141.623L84.7974 136.38Z" fill="#663366"/>
<path d="M70.4814 80.0278L84.7974 74.7847V136.379L70.4814 141.622V80.0278Z" fill="#CC2255"/>
<path d="M97.6873 80.6072L84.7969 74.7842V136.379L97.6873 142.201V80.6072Z" fill="#EEAA00"/>
<path d="M70.4814 80.0278L83.3718 85.8503V147.445L70.4814 141.622V80.0278Z" fill="url(#paint18_linear_598_83)"/>
<path d="M97.688 80.6074L83.3721 85.8501V147.445L97.688 142.202V80.6074Z" fill="url(#paint19_linear_598_83)"/>
<path d="M70.4814 80.0278L83.3718 85.8503L97.6878 80.6076L84.7974 74.7847L70.4814 80.0278Z" fill="url(#paint20_linear_598_83)"/>
<path d="M70 48.2427L82.8904 54.0656L97.2063 48.8225L84.3159 43L70 48.2427Z" fill="url(#paint21_linear_598_83)"/>
<path d="M70 48.2427L82.8904 54.0657V71.6636L70 65.8412V48.2427Z" fill="url(#paint22_linear_598_83)"/>
<path d="M97.2056 48.8223L82.8896 54.0654V71.6634L97.2056 66.4207V48.8223Z" fill="url(#paint23_linear_598_83)"/>
<defs>
<linearGradient id="paint0_linear_598_83" x1="129.316" y1="49.9162" x2="129.316" y2="43.5151" gradientUnits="userSpaceOnUse">
<stop stop-color="#FFD858"/>
<stop offset="1" stop-color="#FFD858"/>
</linearGradient>
<linearGradient id="paint1_linear_598_83" x1="127.199" y1="66.6347" x2="127.199" y2="59.7222" gradientUnits="userSpaceOnUse">
<stop stop-color="#FFD858"/>
<stop offset="1" stop-color="#FFDB5C"/>
</linearGradient>
<linearGradient id="paint2_linear_598_83" x1="126.561" y1="59.7259" x2="126.561" y2="49.9165" gradientUnits="userSpaceOnUse">
<stop stop-color="#FEFFA2"/>
<stop offset="1" stop-color="#FEFFA2"/>
</linearGradient>
<linearGradient id="paint3_linear_598_83" x1="124.784" y1="82.8486" x2="124.784" y2="66.6343" gradientUnits="userSpaceOnUse">
<stop stop-color="#FFF990"/>
<stop offset="1" stop-color="#FFD858"/>
</linearGradient>
<linearGradient id="paint4_linear_598_83" x1="120.033" y1="67.4867" x2="120.033" y2="66.9995" gradientUnits="userSpaceOnUse">
<stop stop-color="#FFF990"/>
<stop offset="0.5" stop-color="#FFED77"/>
<stop offset="1" stop-color="#FFD858"/>
</linearGradient>
<linearGradient id="paint5_linear_598_83" x1="118.226" y1="68.0936" x2="118.226" y2="67.4863" gradientUnits="userSpaceOnUse">
<stop stop-color="#FFF990"/>
<stop offset="1" stop-color="#FFF990"/>
</linearGradient>
<linearGradient id="paint6_linear_598_83" x1="117.885" y1="75.674" x2="122.988" y2="65.6353" gradientUnits="userSpaceOnUse">
<stop stop-color="#FFCA8F"/>
<stop offset="1" stop-color="#FFECB3"/>
</linearGradient>
<linearGradient id="paint7_linear_598_83" x1="117.885" y1="75.674" x2="122.988" y2="65.6353" gradientUnits="userSpaceOnUse">
<stop stop-color="#FFCA8F"/>
<stop offset="1" stop-color="#FFECB3"/>
</linearGradient>
<linearGradient id="paint8_linear_598_83" x1="117.885" y1="75.674" x2="122.988" y2="65.6353" gradientUnits="userSpaceOnUse">
<stop stop-color="#FFCA8F"/>
<stop offset="1" stop-color="#FFECB3"/>
</linearGradient>
<linearGradient id="paint9_linear_598_83" x1="115.283" y1="64.6715" x2="118.895" y2="55.0396" gradientUnits="userSpaceOnUse">
<stop stop-color="#FFB78B"/>
<stop offset="1" stop-color="#FF1933"/>
</linearGradient>
<linearGradient id="paint10_linear_598_83" x1="116.513" y1="83.9264" x2="116.513" y2="82.8486" gradientUnits="userSpaceOnUse">
<stop stop-color="#FFD858"/>
<stop offset="0.5" stop-color="#FFEE78"/>
<stop offset="1" stop-color="#FFF990"/>
</linearGradient>
<linearGradient id="paint11_linear_598_83" x1="119.859" y1="71.414" x2="114.802" y2="64.6717" gradientUnits="userSpaceOnUse">
<stop stop-color="#FFF284"/>
<stop offset="1" stop-color="#FF5B57"/>
</linearGradient>
<linearGradient id="paint12_linear_598_83" x1="115.449" y1="75.6734" x2="115.449" y2="73.4927" gradientUnits="userSpaceOnUse">
<stop stop-color="#FFD858"/>
<stop offset="0.5" stop-color="#E45A00"/>
<stop offset="1" stop-color="#FFA724"/>
</linearGradient>
<linearGradient id="paint13_linear_598_83" x1="114.651" y1="59.1815" x2="114.651" y2="54.4707" gradientUnits="userSpaceOnUse">
<stop stop-color="#FFF990"/>
<stop offset="1" stop-color="#FFF990"/>
</linearGradient>
<linearGradient id="paint14_linear_598_83" x1="108.782" y1="80.0826" x2="114.321" y2="72.6178" gradientUnits="userSpaceOnUse">
<stop stop-color="#FFECB3"/>
<stop offset="1" stop-color="#FF5453"/>
</linearGradient>
<linearGradient id="paint15_linear_598_83" x1="105.893" y1="77.4342" x2="111.672" y2="84.4174" gradientUnits="userSpaceOnUse">
<stop offset="0.0795775" stop-color="#FB8778"/>
<stop offset="1" stop-color="#FFCD92"/>
</linearGradient>
<linearGradient id="paint16_linear_598_83" x1="111.19" y1="58.8925" x2="106.374" y2="50.4646" gradientUnits="userSpaceOnUse">
<stop stop-color="#F53753"/>
<stop offset="1" stop-color="#FB8A7A"/>
</linearGradient>
<linearGradient id="paint17_linear_598_83" x1="121.613" y1="47.6003" x2="133.824" y2="77.8232" gradientUnits="userSpaceOnUse">
<stop stop-color="#FDB08B"/>
<stop offset="0.504808" stop-color="#FF5B57"/>
<stop offset="1" stop-color="#B05DE4"/>
</linearGradient>
<linearGradient id="paint18_linear_598_83" x1="-4.64751" y1="138.596" x2="76.9266" y2="147.445" gradientUnits="userSpaceOnUse">
<stop stop-color="#D778EE"/>
<stop offset="1" stop-color="#7438D9"/>
</linearGradient>
<linearGradient id="paint19_linear_598_83" x1="85.8927" y1="73.5805" x2="95.7655" y2="168.696" gradientUnits="userSpaceOnUse">
<stop stop-color="#DB78ED"/>
<stop offset="1" stop-color="#6C33D7"/>
</linearGradient>
<linearGradient id="paint20_linear_598_83" x1="84.0846" y1="74.7847" x2="84.0846" y2="85.8503" gradientUnits="userSpaceOnUse">
<stop stop-color="#FD7BE1"/>
<stop offset="1" stop-color="#F07AE6"/>
</linearGradient>
<linearGradient id="paint21_linear_598_83" x1="83.4847" y1="44.4448" x2="85.6519" y2="81.7685" gradientUnits="userSpaceOnUse">
<stop stop-color="#FFEEB5"/>
<stop offset="1" stop-color="#FF4600"/>
</linearGradient>
<linearGradient id="paint22_linear_598_83" x1="61.0905" y1="35.0537" x2="80.8359" y2="67.3206" gradientUnits="userSpaceOnUse">
<stop stop-color="#FFD79D"/>
<stop offset="1" stop-color="#F53753"/>
</linearGradient>
<linearGradient id="paint23_linear_598_83" x1="91.4303" y1="42.9998" x2="90.2263" y2="82.4906" gradientUnits="userSpaceOnUse">
<stop stop-color="#FFD79D"/>
<stop offset="1" stop-color="#F53753"/>
</linearGradient>
</defs>
</svg>
