<svg role="img" viewBox="0 0 24 24" xmlns="http://www.w3.org/2000/svg" id="Walletconnect--Streamline-Simple-Icons" height="24" width="24">
  <desc>
    Walletconnect Streamline Icon: https://streamlinehq.com
  </desc>
  <title>WalletConnect</title>
  <path d="M4.913 7.519c3.915 -3.831 10.26 -3.831 14.174 0l0.471 0.461a0.483 0.483 0 0 1 0 0.694l-1.611 1.577a0.252 0.252 0 0 1 -0.354 0l-0.649 -0.634c-2.73 -2.673 -7.157 -2.673 -9.887 0l-0.694 0.68a0.255 0.255 0 0 1 -0.355 0L4.397 8.719a0.482 0.482 0 0 1 0 -0.693l0.516 -0.507Zm17.506 3.263 1.434 1.404a0.483 0.483 0 0 1 0 0.694l-6.466 6.331a0.508 0.508 0 0 1 -0.709 0l-4.588 -4.493a0.126 0.126 0 0 0 -0.178 0l-4.589 4.493a0.508 0.508 0 0 1 -0.709 0L0.147 12.88a0.483 0.483 0 0 1 0 -0.694l1.434 -1.404a0.508 0.508 0 0 1 0.709 0l4.589 4.493c0.05 0.048 0.129 0.048 0.178 0l4.589 -4.493a0.508 0.508 0 0 1 0.709 0l4.589 4.493c0.05 0.048 0.128 0.048 0.178 0l4.589 -4.493a0.507 0.507 0 0 1 0.708 0Z" fill="#000000" stroke-width="1"></path>
</svg>