<svg width="1547" height="1547" viewBox="0 0 1547 1547" fill="none" xmlns="http://www.w3.org/2000/svg">
<path d="M773.318 0C346.225 0 0 346.225 0 773.318C0 1200.41 346.225 1546.64 773.318 1546.64C1200.41 1546.64 1546.64 1200.41 1546.64 773.318C1546.64 346.225 1200.41 0 773.318 0ZM555.728 396.363H991.016L1050.86 500.091H495.778L555.62 396.363H555.728ZM995.006 773.318L884.378 964.923H662.367L551.739 773.318L662.582 581.39H884.27L995.113 773.318H995.006ZM328.326 1103.8L137.476 773.318L328.434 442.62L379.866 531.683L240.341 773.318L379.758 1014.74L328.326 1103.8ZM338.03 773.318L448.874 581.39H568.667L457.823 773.318L568.451 964.923H448.658L338.03 773.318ZM990.908 1150.27H555.728L495.67 1046.22H615.463L615.679 1046.55H931.173L931.389 1046.22H1051.18L991.124 1150.27H990.908ZM978.077 964.923L1088.71 773.318L977.862 581.39H1097.65L1208.5 773.318L1097.87 964.923H978.077ZM1218.2 1103.8L1166.77 1014.74L1306.19 773.318L1166.66 531.683L1218.09 442.62L1409.05 773.318L1218.2 1103.8Z" fill="#DE2A02"/>
</svg>
