<svg viewBox="0 0 16 16" fill="#000000" xmlns="http://www.w3.org/2000/svg" id="Bnb-Line--Streamline-Remix" height="16" width="16">
  <desc>
    Bnb Line Streamline Icon: https://streamlinehq.com
  </desc>
  <path d="m7.999933333333333 13.792666666666666 -1.3394066666666666 -0.7754666666666666 -0.0018466666666666666 1.5396L8 15.333333333333332l1.3409999999999997 -0.7763333333333333 -0.0018666666666666666 -1.5396 -1.3392 0.7752666666666667Zm2.6715999999999998 -1.5466666666666664 0.0018666666666666666 1.5396L14.333333333333332 11.666666666666666v-4.2362l-1.3333333333333333 0.7676666666666666v2.6997999999999998l-2.3284666666666665 1.3480666666666665ZM13 6.659599999999999l1.3333333333333333 -0.7676733333333333V4.333333333333333l-1.3306 -0.7703466666666667 -1.3306 0.7703333333333333L13 5.102073333333333V6.659599999999999Zm-2.6584 -3.096613333333333 1.3305333333333333 -0.7703333333333333L8 0.6666666666666666 4.327773333333333 2.7926933333333332l1.3305733333333332 0.7703333333333333 2.3415866666666663 -1.3556666666666666 2.341666666666667 1.3556266666666668ZM4.327773333333333 4.33336l-1.3305799999999999 -0.7703333333333333L1.6666666666666665 4.333333333333333v1.5588666666666664l1.3332933333333332 0.7676466666666666V5.1020933333333325l1.3278133333333333 -0.7687333333333333ZM1.6666666666666665 7.430733333333333l1.3332933333333332 0.7676666666666666v2.699533333333333l2.3281533333333333 1.3478666666666665 -0.0018399999999999998 1.5396L1.6666666666666665 11.666666666666666v-4.2359333333333336Zm9.999933333333333 -1.5599 -1.3250666666666666 -0.7671600000000001 -2.3415999999999997 1.3556733333333333 -2.3415466666666664 -1.3556266666666668L4.333333333333333 5.870853333333333v1.55668l2.332273333333333 1.3428 -0.00324 2.7072666666666665 1.3375666666666666 0.7744 1.337333333333333 -0.7742 -0.0031999999999999997 -2.707533333333333 2.332533333333333 -1.343V5.870833333333334ZM5.32996 10.706266666666666l0.0013933333333333332 -1.1656L4.333333333333333 8.966066666666666v1.1631999999999998l0.9966266666666665 0.577Zm1.6589733333333332 -6.372879999999999 1.011 0.5852933333333333 1.011 -0.58534L8 3.7480466666666663l-1.0110666666666666 0.58534Zm3.6794 5.207213333333333 0.9982666666666666 -0.5747333333333333v1.1633333333333333l-0.9968666666666667 0.5771999999999999 -0.0013999999999999998 -1.1658Z" stroke-width="0.6667"></path>
</svg>